<?xml version="1.0" standalone="no"?>
<!DOCTYPE svg PUBLIC "-//W3C//DTD SVG 20010904//EN"
 "http://www.w3.org/TR/2001/REC-SVG-20010904/DTD/svg10.dtd">
<svg version="1.0" xmlns="http://www.w3.org/2000/svg"
 width="1352.000000pt" height="1352.000000pt" viewBox="0 0 1352.000000 1352.000000"
 preserveAspectRatio="xMidYMid meet">
<metadata>
Created by potrace 1.11, written by Peter Selinger 2001-2013
</metadata>
<g transform="translate(0.000000,1352.000000) scale(0.100000,-0.100000)"
fill="#000000" stroke="none">
<path d="M8420 13490 c-101 -17 -295 -48 -674 -107 l-179 -28 -27 -60 c-15
-33 -26 -61 -25 -63 3 -3 512 74 873 131 45 8 82 13 82 12 0 -2 -100 -244
-132 -320 -16 -38 -36 -89 -45 -112 -8 -24 -17 -43 -20 -43 -3 0 -25 23 -50
50 -25 28 -49 50 -54 50 -5 0 -14 -12 -20 -27 -5 -16 -18 -46 -29 -68 -30 -65
-80 -189 -80 -199 0 -5 21 -6 48 -2 122 17 276 35 279 32 2 -1 -42 -115 -98
-252 -55 -137 -148 -366 -206 -509 -175 -432 -249 -616 -286 -705 -19 -47 -65
-159 -102 -250 -37 -91 -83 -203 -102 -250 -20 -47 -43 -105 -53 -130 -27 -69
-126 -311 -143 -351 l-16 -36 -158 -6 c-188 -8 -353 -9 -353 -2 0 3 50 123
111 267 166 392 219 517 244 578 22 54 92 219 139 330 13 30 61 143 106 250
45 107 127 300 181 428 55 129 99 240 99 248 0 12 -9 14 -47 9 -27 -4 -55 -9
-63 -11 -8 -2 -46 -76 -84 -166 -38 -90 -129 -302 -201 -473 -297 -696 -536
-1256 -581 -1362 l-47 -113 -54 0 c-30 0 -52 3 -50 8 3 4 100 228 215 497 116
270 314 732 441 1029 128 296 233 543 234 549 1 7 -13 10 -38 9 -92 -6 -82 6
-177 -215 -48 -111 -135 -312 -193 -447 -59 -135 -133 -306 -165 -380 -32 -74
-104 -241 -160 -370 -56 -129 -122 -280 -145 -335 -24 -55 -68 -156 -98 -225
l-54 -125 -63 -3 c-48 -2 -61 0 -57 10 6 15 184 424 264 608 31 69 68 154 83
190 27 62 59 138 183 420 248 569 357 822 357 831 0 6 -8 8 -17 6 -10 -3 -39
-8 -64 -12 -46 -6 -47 -7 -74 -68 -15 -34 -51 -116 -80 -182 -29 -66 -144
-327 -255 -580 -111 -253 -226 -515 -256 -583 -30 -67 -79 -179 -110 -250 -31
-70 -83 -188 -116 -263 l-61 -137 -196 -6 c-108 -4 -270 -11 -361 -16 -91 -5
-320 -15 -510 -20 -190 -6 -588 -20 -885 -30 -297 -11 -651 -22 -787 -26 -137
-4 -248 -11 -248 -16 0 -4 122 -206 272 -449 l271 -441 -29 -28 c-16 -15 -240
-227 -499 -470 -258 -244 -471 -447 -473 -451 -4 -11 2 -11 343 1 154 5 512
17 795 25 283 8 580 18 660 21 80 4 143 4 140 2 -3 -3 -277 -126 -610 -273
-333 -147 -610 -273 -617 -279 -6 -6 -32 -58 -56 -116 -43 -101 -262 -619
-373 -882 -124 -293 -168 -398 -289 -683 -70 -165 -151 -356 -180 -425 -29
-69 -63 -149 -75 -178 -13 -29 -20 -55 -17 -58 3 -3 146 -1 319 6 334 12 1312
39 1314 37 1 -1 -75 -173 -167 -382 -93 -209 -169 -386 -169 -392 0 -15 96
-18 132 -4 18 7 38 43 85 152 34 79 88 203 119 274 31 72 78 179 104 239 29
68 55 113 66 117 20 8 124 12 124 5 0 -3 -52 -125 -116 -273 -204 -473 -214
-495 -210 -502 2 -3 37 -4 77 -1 l72 5 168 390 167 390 62 3 c50 2 61 0 57
-11 -3 -7 -75 -178 -161 -379 -86 -202 -156 -372 -156 -378 0 -9 20 -10 73 -5
39 4 75 10 78 14 4 3 44 94 89 201 45 107 107 254 137 325 31 72 65 155 77
185 l22 55 120 6 c231 12 467 10 461 -3 -16 -39 -122 -300 -137 -338 -21 -54
-107 -263 -185 -455 -32 -77 -75 -183 -96 -235 -27 -68 -43 -96 -56 -97 -22
-3 -607 -32 -1373 -69 -305 -14 -561 -28 -568 -30 -9 -3 10 -29 50 -72 34 -38
108 -117 162 -176 l99 -107 -56 -207 c-32 -114 -96 -346 -143 -517 -182 -658
-203 -739 -198 -744 3 -3 70 27 149 67 80 39 145 68 145 63 0 -5 -86 -253
-190 -552 -105 -298 -189 -544 -187 -545 2 -2 88 55 191 127 103 72 189 129
191 127 2 -2 -1 -28 -6 -58 -5 -30 -20 -134 -35 -230 -14 -96 -41 -281 -60
-410 -36 -243 -66 -451 -109 -745 -14 -93 -29 -194 -34 -222 -4 -29 -5 -53 -1
-53 4 0 262 293 575 651 450 515 570 647 575 633 4 -11 15 -107 25 -214 10
-107 21 -201 25 -208 3 -7 129 197 300 488 161 276 296 497 300 493 4 -4 24
-75 45 -156 31 -120 41 -146 51 -135 7 7 219 308 472 668 l459 655 149 8 c82
4 194 11 249 15 l100 7 62 170 c691 1899 903 2479 910 2485 8 7 855 41 862 34
2 -2 -36 -112 -84 -244 -48 -132 -86 -242 -84 -245 3 -2 108 51 234 119 217
116 501 267 1135 606 304 162 1011 540 1445 772 154 83 281 151 283 153 4 3
-1874 1669 -1886 1672 -4 2 -45 -104 -91 -235 -46 -130 -87 -240 -91 -245 -6
-7 -860 -41 -867 -34 -2 2 23 75 54 161 l57 158 192 96 193 96 60 166 c33 91
126 347 206 570 81 223 203 559 271 747 68 188 126 354 130 369 l7 27 -152 -6
c-83 -3 -151 -2 -151 2 0 5 92 262 205 571 l205 563 -54 71 c-30 38 -53 73
-51 77 3 3 45 12 95 18 49 7 90 16 90 21 0 4 -47 67 -105 139 -58 72 -105 136
-105 143 0 7 7 34 17 60 l16 47 -41 54 -42 54 20 49 c11 27 51 135 90 241 l71
192 -267 353 c-147 194 -280 369 -295 389 l-28 35 -82 -8 -82 -9 -31 38 c-17
21 -44 52 -61 69 l-30 31 -105 -17z m294 -312 c-19 -46 -60 -146 -91 -223 -31
-77 -59 -143 -63 -148 -3 -4 -27 22 -54 58 -37 50 -45 68 -38 82 6 10 33 77
62 148 29 72 56 134 61 140 8 8 56 16 141 24 15 1 12 -11 -18 -81z m311 -408
c124 -165 225 -304 225 -309 0 -5 -25 -75 -55 -156 -30 -80 -55 -151 -55 -157
0 -6 11 -8 25 -6 14 3 25 5 25 4 0 -4 -101 -280 -103 -283 -2 -1 -21 21 -43
50 -21 28 -48 61 -60 72 -15 15 -182 228 -276 352 -6 7 13 63 51 155 34 79 61
147 61 152 0 9 -91 136 -97 136 -2 0 -17 -27 -33 -61 l-28 -60 -37 48 -37 48
39 9 c21 5 39 10 41 11 2 2 86 205 113 273 5 12 11 22 14 22 2 0 106 -135 230
-300z m-377 -147 c-2 -5 -14 -36 -27 -71 l-24 -62 -44 56 c-24 32 -41 60 -38
63 5 5 51 12 123 20 8 0 12 -2 10 -6z m-39 -672 l31 -39 -46 -119 c-25 -65
-70 -179 -99 -253 -29 -74 -94 -238 -143 -365 -97 -249 -149 -382 -236 -602
-30 -78 -69 -178 -86 -222 l-31 -81 -55 0 -54 0 16 38 c9 20 22 53 29 72 12
33 54 140 220 560 40 102 98 248 128 325 30 77 103 262 162 410 59 149 111
280 116 293 5 12 10 22 13 22 2 0 18 -18 35 -39z m166 -223 c3 -9 -35 -124
-85 -255 -98 -255 -130 -339 -161 -418 -11 -27 -81 -212 -157 -410 l-138 -360
-51 -3 -51 -3 155 398 c85 219 163 421 173 448 10 28 60 156 110 285 50 129
105 270 122 314 l30 78 24 -28 c13 -16 26 -37 29 -46z m156 -190 l20 -28 -61
-162 c-34 -90 -126 -334 -205 -543 -79 -209 -154 -409 -168 -445 l-25 -65 -51
-3 c-28 -2 -51 0 -51 3 0 5 44 122 175 465 24 63 80 212 125 330 45 118 101
267 125 330 24 63 49 128 55 144 9 24 13 26 26 15 8 -7 24 -25 35 -41z m-256
-1605 c-19 -54 -35 -99 -35 -100 0 -1 -42 -4 -92 -5 l-93 -3 -39 -110 c-21
-60 -114 -319 -206 -575 l-168 -465 -92 -3 c-85 -3 -92 -1 -88 15 3 10 96 264
206 565 111 300 202 551 202 557 0 7 -30 11 -84 11 l-84 0 33 91 c18 50 36 93
39 96 5 5 187 13 478 21 l58 2 -35 -97z m-675 -135 c-42 -117 -153 -421 -245
-674 l-168 -462 -81 -5 c-45 -2 -82 -4 -83 -3 -1 0 5 53 12 116 8 63 25 219
40 345 14 127 28 248 31 270 10 67 -10 30 -69 -130 -31 -82 -92 -249 -137
-370 -45 -121 -86 -225 -92 -232 -12 -15 -144 -18 -152 -5 -3 5 13 58 35 118
38 102 420 1146 441 1207 10 26 12 27 89 27 l79 0 0 -27 c0 -16 -9 -104 -20
-198 -44 -370 -61 -528 -56 -533 3 -3 8 1 10 9 73 204 281 746 290 751 6 4 43
8 82 8 l71 0 -77 -212z m-590 185 c0 -5 -16 -49 -36 -100 l-37 -92 -119 -3
-120 -3 -62 -175 c-35 -96 -61 -178 -59 -183 3 -4 40 -4 84 -1 43 4 79 4 79
-1 0 -4 -17 -54 -37 -111 l-37 -104 -87 0 c-73 0 -88 -3 -94 -17 -23 -59 -125
-348 -125 -355 0 -5 50 -6 117 -2 98 6 115 5 111 -7 -3 -8 -18 -53 -33 -100
l-28 -86 -75 -7 c-82 -7 -352 -8 -352 -2 0 2 93 258 206 567 113 310 223 611
244 669 l37 105 104 6 c170 9 319 10 319 2z m-729 -50 c35 -21 59 -68 59 -116
0 -163 -264 -874 -385 -1039 -85 -116 -219 -167 -441 -168 l-71 0 38 103 c21
56 115 314 209 572 94 259 188 515 209 570 l37 100 100 5 c118 6 205 -4 245
-27z m-522 -10 c-6 -16 -94 -257 -196 -538 -102 -280 -199 -537 -216 -570 -40
-75 -141 -179 -202 -206 -68 -30 -145 -36 -201 -14 -76 29 -100 105 -70 225
13 55 391 1098 401 1108 3 3 44 8 92 10 80 4 86 3 79 -13 -117 -305 -390
-1080 -390 -1109 -2 -77 66 -72 111 9 12 22 108 279 214 570 105 292 194 532
196 535 5 6 93 17 150 19 42 1 42 1 32 -26z m-1311 -3 c18 -11 37 -32 42 -46
15 -39 11 -132 -8 -209 l-18 -70 -83 -18 c-45 -10 -85 -17 -87 -14 -3 3 0 22
6 44 6 21 10 61 8 88 -3 47 -5 50 -32 53 -61 7 -126 -103 -126 -216 0 -33 15
-117 36 -197 25 -100 37 -172 41 -250 5 -106 4 -113 -26 -191 -81 -211 -209
-323 -377 -332 -140 -8 -196 55 -174 192 9 58 42 173 52 181 5 4 173 23 176
20 2 -2 -4 -27 -12 -56 -19 -63 -21 -140 -4 -157 19 -19 63 -14 91 12 43 40
79 124 85 197 4 53 -3 96 -36 230 -22 90 -43 187 -46 214 -28 214 131 477 324
536 51 15 134 10 168 -11z m707 -76 c-19 -53 -36 -98 -37 -100 -2 -1 -44 -6
-94 -10 l-91 -7 -203 -563 c-112 -309 -206 -567 -209 -572 -3 -5 -45 -12 -93
-15 -102 -7 -101 -9 -63 85 31 81 376 1017 382 1041 5 15 -4 17 -81 17 -47 0
-86 2 -86 4 0 3 16 50 36 105 l36 101 162 3 c88 1 209 4 268 5 l107 2 -34 -96z
m2210 -1481 c-9 -21 -50 -128 -91 -238 -41 -110 -78 -203 -82 -206 -4 -4 -31
-9 -60 -11 -46 -5 -52 -3 -46 11 3 9 41 108 84 221 43 113 83 217 89 233 10
25 15 27 66 27 l55 0 -15 -37z m-350 -214 c-51 -132 -95 -243 -98 -245 -3 -3
-27 -4 -55 -2 l-50 3 47 120 c26 66 69 175 95 243 l48 122 53 0 53 0 -93 -241z
m-202 119 c-24 -62 -67 -173 -95 -245 l-51 -133 -57 0 -58 0 65 163 c35 89 79
199 96 245 l31 82 57 0 57 0 -45 -112z m-636 75 c-3 -10 -47 -121 -99 -248
l-94 -230 -268 -8 c-147 -5 -270 -7 -272 -4 -4 4 15 52 156 382 l46 110 120 5
c65 4 186 7 268 8 137 2 148 1 143 -15z m-679 -11 c-1 -5 -50 -117 -107 -250
l-103 -242 -54 0 c-30 0 -54 3 -54 6 0 7 186 447 202 477 7 13 21 17 64 17 31
0 54 -4 52 -8z m-260 -11 c-1 -5 -50 -117 -108 -250 l-104 -241 -63 0 c-35 0
-63 3 -63 7 0 4 48 116 106 250 l107 243 64 0 c36 0 63 -4 61 -9z m-278 -7 c0
-4 -48 -116 -107 -250 l-107 -244 -65 -1 c-36 0 -156 -4 -266 -8 -110 -5 -202
-7 -204 -5 -2 2 48 116 110 253 l114 250 130 3 c281 7 395 8 395 2z m4125
-800 c-25 -70 -45 -128 -45 -130 0 -2 -76 -4 -170 -4 -151 0 -170 -2 -179 -17
-5 -10 -44 -108 -86 -218 -43 -110 -80 -206 -82 -212 -4 -10 22 -13 110 -13
l115 0 -50 -124 c-38 -96 -54 -125 -71 -130 -12 -3 -63 -6 -113 -6 l-91 0 -38
-97 c-21 -54 -87 -222 -147 -374 l-108 -276 -62 -7 c-81 -8 -178 -8 -178 1 0
4 56 149 125 323 68 173 185 470 260 660 75 190 170 432 212 538 l76 192 61 1
c34 1 122 5 196 8 74 4 174 8 222 9 l88 2 -45 -126z m-655 97 c0 -6 -21 -64
-47 -130 l-47 -121 -106 -1 c-58 -1 -134 -4 -168 -8 l-64 -6 -84 -215 c-46
-118 -84 -221 -84 -228 0 -10 23 -11 105 -6 87 6 105 5 104 -7 0 -8 -22 -66
-47 -129 l-47 -115 -108 -6 c-60 -4 -112 -10 -116 -15 -5 -5 -61 -142 -124
-304 -64 -162 -129 -326 -144 -365 l-28 -70 -117 -3 -117 -3 25 63 c14 35 157
403 318 818 162 415 302 774 311 796 l16 42 257 9 c141 5 269 10 285 11 15 1
27 -2 27 -7z m-949 -52 c71 -36 96 -109 79 -229 -11 -80 -8 -70 -367 -955 -36
-88 -76 -182 -90 -210 -68 -134 -153 -226 -264 -284 -54 -30 -74 -35 -154 -39
-78 -4 -98 -1 -139 16 -39 18 -50 29 -68 68 -17 40 -20 61 -16 128 6 85 -1 65
193 561 26 66 87 223 136 349 126 321 153 372 253 472 90 89 156 129 238 143
69 12 153 4 199 -20z m-1321 -26 c0 -5 -97 -133 -214 -286 l-213 -278 -27
-157 c-16 -86 -38 -218 -51 -292 -13 -74 -45 -256 -70 -405 -25 -148 -48 -277
-51 -286 -4 -14 -25 -17 -117 -21 -61 -3 -114 -4 -115 -2 -3 2 39 279 99 642
11 68 18 126 16 129 -3 2 -35 -35 -72 -82 -64 -82 -74 -102 -172 -353 -58
-147 -111 -283 -117 -302 -16 -42 -32 -48 -155 -49 -84 -1 -93 1 -88 17 2 9
91 240 196 512 106 272 251 648 323 835 72 187 138 346 146 353 15 12 232 19
232 7 0 -3 -52 -136 -115 -296 -64 -161 -113 -294 -111 -296 4 -5 110 135 374
494 l83 112 57 4 c115 7 162 7 162 0z m-1067 -37 c43 -17 84 -67 97 -117 17
-62 -3 -173 -55 -304 -73 -184 -51 -163 -176 -167 -68 -2 -109 1 -109 7 0 6
21 60 46 120 50 122 66 201 43 216 -22 14 -72 10 -97 -6 -12 -9 -35 -35 -51
-58 -40 -59 -441 -1087 -441 -1131 0 -57 41 -81 93 -55 58 30 86 72 142 214
l56 143 100 7 c55 4 102 5 104 3 7 -6 -89 -238 -132 -320 -48 -93 -154 -200
-243 -248 -57 -30 -76 -35 -156 -38 -76 -4 -99 -1 -137 16 -76 34 -102 100
-86 223 8 68 20 101 274 749 31 80 76 195 100 255 79 203 130 292 217 371 73
67 118 97 171 115 63 22 194 25 240 5z m-654 -78 c-23 -58 -149 -380 -239
-608 -81 -206 -299 -760 -362 -920 l-54 -135 -117 -3 -117 -3 19 48 c10 26 90
230 176 453 87 223 203 520 257 660 83 212 168 430 209 538 8 21 13 22 129 22
l120 0 -21 -52z m-415 5 c-16 -21 -115 -150 -222 -286 l-193 -249 -70 -401
c-39 -221 -83 -478 -99 -571 -16 -93 -31 -170 -32 -171 -2 -1 -54 -5 -115 -8
-103 -6 -113 -5 -113 11 0 17 115 694 125 740 9 39 -10 22 -83 -71 -66 -84
-73 -99 -187 -388 -65 -166 -124 -303 -130 -305 -6 -3 -59 -3 -117 -2 l-105 3
119 305 c66 168 148 379 183 470 161 418 363 931 367 936 3 2 57 3 121 2 l115
-3 -114 -285 c-63 -156 -114 -289 -114 -294 0 -21 49 40 231 288 106 143 201
271 212 283 20 23 31 24 201 31 l48 2 -28 -37z m2374 -762 c-1 -4 -21 -53 -42
-108 l-39 -100 -155 -7 c-85 -3 -157 -4 -160 -1 -3 2 13 51 35 107 l39 103 70
6 c114 9 256 10 252 0z m-103 -1128 c-4 -10 -26 -70 -50 -133 -50 -136 -305
-810 -400 -1060 -36 -96 -95 -251 -130 -345 -35 -93 -69 -183 -75 -199 l-11
-29 -44 43 -44 43 24 61 c12 34 54 144 93 246 39 102 101 264 137 360 86 224
187 491 285 750 117 311 99 280 166 280 49 0 55 -2 49 -17z m-285 3 c0 -4
-244 -644 -325 -851 -13 -33 -76 -197 -140 -365 -64 -168 -120 -309 -125 -313
-7 -8 -80 69 -80 86 0 5 11 36 24 70 47 119 119 305 251 647 162 419 262 677
275 708 8 19 17 22 65 22 30 0 55 -2 55 -4z m-284 -43 c-8 -21 -44 -114 -81
-208 -135 -345 -317 -808 -387 -990 -17 -44 -33 -82 -35 -84 -6 -7 -83 72 -83
85 0 6 27 78 59 160 63 157 163 412 288 729 41 105 88 225 106 268 l31 77 58
0 57 0 -13 -37z m-1088 -1560 c93 -104 302 -334 465 -513 l294 -325 -43 -60
c-24 -33 -88 -123 -142 -200 -89 -126 -374 -530 -602 -852 l-86 -121 -45 171
c-24 94 -48 172 -54 174 -5 1 -131 -206 -280 -461 l-270 -463 -7 41 c-3 23 -9
96 -14 163 -8 147 -14 160 -52 116 -127 -150 -1018 -1160 -1020 -1158 -3 3 9
89 54 400 13 94 35 247 49 340 14 94 36 247 49 340 74 507 74 501 55 490 -8
-5 -72 -51 -143 -102 -72 -51 -131 -91 -132 -90 -2 2 31 102 73 222 139 407
175 509 224 649 26 77 46 143 43 148 -3 4 -77 -28 -165 -73 -119 -59 -159 -75
-155 -62 3 10 15 53 26 96 11 42 29 110 39 150 62 232 85 323 110 417 16 58
61 231 101 385 40 154 77 284 81 288 8 10 540 39 1031 58 172 6 315 13 317 15
15 14 48 -16 199 -183z"/>
<path d="M6433 9764 c-4 -11 -82 -228 -173 -484 l-166 -465 25 -3 c54 -8 106
39 158 143 24 46 217 569 237 642 36 124 26 166 -41 179 -26 5 -34 3 -40 -12z"/>
<path d="M7608 7335 c-39 -21 -60 -62 -137 -261 -38 -98 -129 -330 -201 -514
-140 -356 -161 -418 -153 -450 7 -26 46 -36 83 -20 27 11 90 82 90 102 0 6
195 508 361 928 59 150 68 190 44 213 -20 21 -51 21 -87 2z"/>
<path d="M7367 12868 c-8 -18 -38 -86 -67 -151 -29 -65 -50 -121 -47 -124 6
-6 153 13 166 22 4 2 20 36 35 75 28 72 28 72 9 98 -11 15 -30 46 -43 70 -13
23 -27 42 -32 42 -4 0 -14 -15 -21 -32z"/>
<path d="M6978 12736 c-81 -11 -150 -24 -153 -28 -4 -3 19 -41 51 -83 l58 -77
65 7 c35 4 70 9 76 11 12 5 85 161 85 182 0 15 -2 15 -182 -12z"/>
<path d="M7168 12583 c7 -3 16 -2 19 1 4 3 -2 6 -13 5 -11 0 -14 -3 -6 -6z"/>
<path d="M7108 12573 c7 -3 16 -2 19 1 4 3 -2 6 -13 5 -11 0 -14 -3 -6 -6z"/>
</g>
</svg>
